Coordinates
version=1
nRows=18
nColumns=22
inDegrees=yes

Units are S.I. units (second, meters, Newtons, ...)
If the header above contains a line with 'inDegrees', this indicates whether rotational values are in degrees (yes) or radians (no).

endheader
time	pelvis_tilt	pelvis_list	pelvis_rotation	pelvis_tx	pelvis_ty	pelvis_tz	hip_flexion_r	hip_adduction_r	hip_rotation_r	knee_angle_r	ankle_angle_r	subtalar_angle_r	hip_flexion_l	hip_adduction_l	hip_rotation_l	knee_angle_l	ankle_angle_l	subtalar_angle_l	lumbar_extension	lumbar_bending	lumbar_rotation
      0.01000000	     -9.02233913	      2.04305251	    -35.05983761	     -0.97883355	      0.88362062	     -0.36416401	      7.29591280	      2.73794686	     -0.31739739	     -5.22246571	     11.57380878	     -2.84245553	      5.21525542	     -3.34824921	     -4.86682022	     -5.81837026	     14.74836856	      1.06508849	      6.12743451	      2.04876390	     13.01798854
      0.02000000	     -9.00757027	      2.03443893	    -35.05072200	     -0.97882370	      0.88364002	     -0.36428895	      7.30123594	      2.72815631	     -0.32473979	     -5.25882172	     11.58624347	     -2.84384760	      5.22120032	     -3.34042829	     -4.84270034	     -5.85218201	     14.75196919	      1.06567898	      6.09951229	      2.04248821	     13.02636072
      0.03000000	     -8.99034656	      2.02232779	    -35.03230285	     -0.97880115	      0.88365866	     -0.36445186	      7.31329020	      2.71670988	     -0.35907457	     -5.31611615	     11.61129123	     -2.84294239	      5.22924952	     -3.33154547	     -4.81820029	     -5.89495245	     14.77058028	      1.06338932	      6.06506636	      2.03700552	     13.02478790
      0.04000000	     -8.97935315	      2.00885261	    -35.00589608	     -0.97876387	      0.88366768	     -0.36464263	      7.33208808	      2.70780212	     -0.40921968	     -5.37748981	     11.64420908	     -2.83800048	      5.24025913	     -3.32497750	     -4.79163230	     -5.93076854	     14.79155675	      1.05790333	      6.03660813	      2.03683920	     13.01432406
      0.05000000	     -8.98171860	      2.00237697	    -34.99368592	     -0.97870191	      0.88365939	     -0.36481443	      7.33699618	      2.70177540	     -0.41143467	     -5.38208958	     11.64633919	     -2.83742981	      5.24470405	     -3.31845169	     -4.79096048	     -5.92943875	     14.79327144	      1.05729441	      6.02877500	      2.04399271	     13.01675065
      0.06000000	     -8.97680949	      1.98639607	    -34.94581222	     -0.97865184	      0.88365532	     -0.36506703	      7.37835052	      2.69429039	     -0.51653506	     -5.48010738	     11.69939457	     -2.82272466	      5.26335530	     -3.31335271	     -4.73302263	     -5.96470892	     14.82175137	      1.04027645	      6.00065087	      2.04865300	     12.98173797
      0.07000000	     -8.98045736	      1.97976966	    -34.92977245	     -0.97859784	      0.88364745	     -0.36525601	      7.38370243	      2.68903624	     -0.51501177	     -5.48312136	     11.69889623	     -2.82210215	      5.26874314	     -3.30709162	     -4.73223882	     -5.96174205	     14.82163234	      1.03958662	      5.99137554	      2.05466922	     12.98692804
      0.08000000	     -8.98917512	      1.97221870	    -34.88561653	     -0.97855182	      0.88363029	     -0.36550847	      7.42823772	      2.68283559	     -0.59047976	     -5.55304208	     11.71523833	     -2.80882248	      5.29093741	     -3.30222235	     -4.66886941	     -5.97188721	     14.82321254	      1.01877753	      5.98270071	      2.06219543	     12.96383031
      0.09000000	     -8.99383861	      1.96715538	    -34.87033975	     -0.97850700	      0.88362264	     -0.36569349	      7.43383669	      2.67800410	     -0.58894814	     -5.55288523	     11.71494002	     -2.80856421	      5.29658094	     -3.29603333	     -4.67030730	     -5.96693672	     14.82333036	      1.01809972	      5.97316740	      2.06778610	     12.96913126
      0.10000000	     -8.99813025	      1.96246144	    -34.85434675	     -0.97845839	      0.88361310	     -0.36587385	      7.43954396	      2.67259122	     -0.58897696	     -5.55500582	     11.71338107	     -2.80860816	      5.30161714	     -3.28974276	     -4.67046924	     -5.96234686	     14.82317310	      1.01738148	      5.96522264	      2.07378392	     12.97503753
      0.11000000	     -9.00254643	      1.95891019	    -34.83936836	     -0.97840933	      0.88360386	     -0.36604442	      7.44572062	      2.66690144	     -0.59089231	     -5.55809768	     11.71051735	     -2.80906192	      5.30671216	     -3.28332000	     -4.66953085	     -5.95755790	     14.82262273	      1.01661263	      5.95830026	      2.07927625	     12.98125424
      0.12000000	     -9.02571416	      1.98032353	    -34.80663508	     -0.97835852	      0.88355741	     -0.36623863	      7.50410347	      2.64857002	     -0.64623828	     -5.59925214	     11.69775125	     -2.82235741	      5.34267679	     -3.26401489	     -4.62011612	     -5.94479513	     14.79789366	      0.99692548	      5.98688379	      2.07083695	     12.96862655
      0.13000000	     -9.03006822	      1.97811126	    -34.79632534	     -0.97830267	      0.88354841	     -0.36638271	      7.50737919	      2.64320340	     -0.64537353	     -5.59757301	     11.69772065	     -2.82287967	      5.34625675	     -3.25777231	     -4.62251935	     -5.94110706	     14.79848801	      0.99644145	      5.98111380	      2.07722328	     12.97450797
      0.14000000	     -9.03450886	      1.97698021	    -34.78603583	     -0.97823811	      0.88353881	     -0.36651950	      7.51033280	      2.63669262	     -0.64531604	     -5.59596618	     11.69695072	     -2.82353480	      5.34940011	     -3.25070628	     -4.62549613	     -5.93597021	     14.79879676	      0.99606039	      5.97637525	      2.08338738	     12.98099152
      0.15000000	     -9.03919248	      1.97703231	    -34.77616533	     -0.97816723	      0.88352967	     -0.36665361	      7.51375655	      2.62898077	     -0.64602369	     -5.59377306	     11.69598077	     -2.82418451	      5.35164101	     -3.24252437	     -4.62906560	     -5.92915496	     14.79886401	      0.99578429	      5.97164895	      2.08992071	     12.98779293
      0.16000000	     -9.04264686	      1.99641182	    -34.77176385	     -0.97805290	      0.88350639	     -0.36675786	      7.52171015	      2.60300925	     -0.66341786	     -5.58528994	     11.68895923	     -2.82756651	      5.34393044	     -3.21444947	     -4.63994514	     -5.88929890	     14.79047013	      0.99355461	      5.98538959	      2.07670164	     13.01635820
      0.17000000	     -9.04760604	      1.99644505	    -34.76301882	     -0.97797425	      0.88349743	     -0.36690169	      7.52592882	      2.59418377	     -0.66092476	     -5.58396281	     11.68964639	     -2.82774060	      5.34615244	     -3.20536455	     -4.64242993	     -5.88196238	     14.78887153	      0.99337911	      5.97501000	      2.08675513	     13.02000088
      0.18000000	     -9.03839803	      2.01883552	    -34.76310416	     -0.97785581	      0.88349149	     -0.36701826	      7.53097480	      2.55683680	     -0.65823577	     -5.58723209	     11.70010024	     -2.82534297	      5.31331769	     -3.16446899	     -4.64090311	     -5.81157589	     14.75389956	      0.98959756	      5.97085591	      2.06777645	     13.03712189
